<mxfile host="app.diagrams.net" modified="2022-05-29T13:37:38.819Z" agent="5.0 (Windows)" etag="Cn5IyXJtQeorMlS_xHJx" version="18.1.3" type="github">
  <diagram id="Zmv_30nIT3G1Nc5Q77fU" name="Page-1">
    <mxGraphModel dx="2222" dy="1116" grid="0" gridSize="10" guides="1" tooltips="1" connect="1" arrows="1" fold="1" page="0" pageScale="1" pageWidth="827" pageHeight="1169" math="0" shadow="0">
      <root>
        <mxCell id="0" />
        <mxCell id="1" parent="0" />
        <mxCell id="QEp2L6PEctv4l-9vnAkM-6" style="edgeStyle=orthogonalEdgeStyle;rounded=0;orthogonalLoop=1;jettySize=auto;html=1;exitX=0.5;exitY=1;exitDx=0;exitDy=0;exitPerimeter=0;entryX=0.5;entryY=0;entryDx=0;entryDy=0;" parent="1" source="Ts85mT_bDLmugQmWIPTJ-1" target="QEp2L6PEctv4l-9vnAkM-1" edge="1">
          <mxGeometry relative="1" as="geometry" />
        </mxCell>
        <mxCell id="Ts85mT_bDLmugQmWIPTJ-1" value="&lt;div&gt;local file: &lt;br&gt;&lt;/div&gt;&lt;div&gt;Film und Buchtagebuch Tabelle.csv&lt;/div&gt;" style="shape=cylinder3;whiteSpace=wrap;html=1;boundedLbl=1;backgroundOutline=1;size=15;rotation=0;" parent="1" vertex="1">
          <mxGeometry x="406" y="4" width="126" height="143" as="geometry" />
        </mxCell>
        <mxCell id="q-jhtlWtcuQimejiOmJV-1" style="edgeStyle=orthogonalEdgeStyle;rounded=0;orthogonalLoop=1;jettySize=auto;html=1;entryX=1;entryY=0.5;entryDx=0;entryDy=0;entryPerimeter=0;" edge="1" parent="1" source="Ts85mT_bDLmugQmWIPTJ-2" target="Ts85mT_bDLmugQmWIPTJ-1">
          <mxGeometry relative="1" as="geometry" />
        </mxCell>
        <mxCell id="Ts85mT_bDLmugQmWIPTJ-2" value="Manual input" style="shape=process;whiteSpace=wrap;html=1;backgroundOutline=1;fillColor=#f8cecc;strokeColor=#b85450;" parent="1" vertex="1">
          <mxGeometry x="587" y="-12" width="120" height="60" as="geometry" />
        </mxCell>
        <mxCell id="Ts85mT_bDLmugQmWIPTJ-4" value="&#xa;&lt;a class=&quot;item_link&quot; href=&quot;http://localhost:8888/notebooks/01%20Filmprojekt/Filme%20und%20Opern%20private.ipynb&quot; target=&quot;_blank&quot;&gt;&lt;span class=&quot;item_name&quot;&gt;Filme und Opern private.ipynb&lt;/span&gt;&lt;/a&gt;&#xa;&#xa;" style="rounded=0;whiteSpace=wrap;html=1;" parent="1" vertex="1">
          <mxGeometry x="355" y="400" width="228" height="46" as="geometry" />
        </mxCell>
        <mxCell id="Ts85mT_bDLmugQmWIPTJ-11" style="edgeStyle=orthogonalEdgeStyle;rounded=0;orthogonalLoop=1;jettySize=auto;html=1;exitX=0.5;exitY=1;exitDx=0;exitDy=0;exitPerimeter=0;entryX=0.5;entryY=0;entryDx=0;entryDy=0;entryPerimeter=0;" parent="1" source="Ts85mT_bDLmugQmWIPTJ-7" target="Ts85mT_bDLmugQmWIPTJ-10" edge="1">
          <mxGeometry relative="1" as="geometry" />
        </mxCell>
        <mxCell id="Ts85mT_bDLmugQmWIPTJ-7" value="&lt;div&gt;local file: &lt;br&gt;&lt;/div&gt;&lt;div&gt;input_movies.csv&lt;/div&gt;" style="shape=cylinder3;whiteSpace=wrap;html=1;boundedLbl=1;backgroundOutline=1;size=15;" parent="1" vertex="1">
          <mxGeometry x="-3" y="291" width="156" height="71" as="geometry" />
        </mxCell>
        <mxCell id="Ts85mT_bDLmugQmWIPTJ-12" style="edgeStyle=orthogonalEdgeStyle;rounded=0;orthogonalLoop=1;jettySize=auto;html=1;entryX=0.5;entryY=0;entryDx=0;entryDy=0;entryPerimeter=0;" parent="1" source="Ts85mT_bDLmugQmWIPTJ-8" target="Ts85mT_bDLmugQmWIPTJ-9" edge="1">
          <mxGeometry relative="1" as="geometry" />
        </mxCell>
        <mxCell id="Ts85mT_bDLmugQmWIPTJ-8" value="&lt;div&gt;local file: &lt;br&gt;&lt;/div&gt;&lt;div&gt;input_operas.csv&lt;/div&gt;" style="shape=cylinder3;whiteSpace=wrap;html=1;boundedLbl=1;backgroundOutline=1;size=15;" parent="1" vertex="1">
          <mxGeometry x="185" y="291" width="156" height="71" as="geometry" />
        </mxCell>
        <mxCell id="Ts85mT_bDLmugQmWIPTJ-22" style="edgeStyle=orthogonalEdgeStyle;rounded=0;orthogonalLoop=1;jettySize=auto;html=1;entryX=0.5;entryY=0;entryDx=0;entryDy=0;" parent="1" source="Ts85mT_bDLmugQmWIPTJ-9" target="Ts85mT_bDLmugQmWIPTJ-21" edge="1">
          <mxGeometry relative="1" as="geometry" />
        </mxCell>
        <mxCell id="Ts85mT_bDLmugQmWIPTJ-9" value="&lt;div&gt;github file: &lt;br&gt;&lt;/div&gt;&lt;div&gt;input_operas.csv&lt;/div&gt;" style="shape=cylinder3;whiteSpace=wrap;html=1;boundedLbl=1;backgroundOutline=1;size=15;" parent="1" vertex="1">
          <mxGeometry x="185" y="425" width="156" height="71" as="geometry" />
        </mxCell>
        <mxCell id="Ts85mT_bDLmugQmWIPTJ-18" style="edgeStyle=orthogonalEdgeStyle;rounded=0;orthogonalLoop=1;jettySize=auto;html=1;entryX=0.5;entryY=0;entryDx=0;entryDy=0;" parent="1" source="Ts85mT_bDLmugQmWIPTJ-10" target="Ts85mT_bDLmugQmWIPTJ-17" edge="1">
          <mxGeometry relative="1" as="geometry">
            <mxPoint x="75" y="550" as="targetPoint" />
          </mxGeometry>
        </mxCell>
        <mxCell id="Ts85mT_bDLmugQmWIPTJ-10" value="&lt;div&gt;github file: &lt;br&gt;&lt;/div&gt;&lt;div&gt;input_movies.csv&lt;/div&gt;" style="shape=cylinder3;whiteSpace=wrap;html=1;boundedLbl=1;backgroundOutline=1;size=15;" parent="1" vertex="1">
          <mxGeometry x="-3" y="425" width="156" height="71" as="geometry" />
        </mxCell>
        <mxCell id="Ts85mT_bDLmugQmWIPTJ-17" value="movie app:&lt;br&gt;&lt;div&gt;wrangle_data_movies.py&lt;/div&gt;" style="rounded=0;whiteSpace=wrap;html=1;fillColor=#fff2cc;strokeColor=#d6b656;" parent="1" vertex="1">
          <mxGeometry x="-7" y="527" width="164" height="60" as="geometry" />
        </mxCell>
        <mxCell id="Ts85mT_bDLmugQmWIPTJ-19" value="Git upload" style="rounded=0;whiteSpace=wrap;html=1;fillColor=#dae8fc;strokeColor=#6c8ebf;" parent="1" vertex="1">
          <mxGeometry x="15" y="375" width="120" height="29" as="geometry" />
        </mxCell>
        <mxCell id="Ts85mT_bDLmugQmWIPTJ-20" value="Git upload" style="rounded=0;whiteSpace=wrap;html=1;fillColor=#dae8fc;strokeColor=#6c8ebf;" parent="1" vertex="1">
          <mxGeometry x="203" y="375" width="120" height="29" as="geometry" />
        </mxCell>
        <mxCell id="Ts85mT_bDLmugQmWIPTJ-21" value="movie app:&lt;br&gt;&lt;div&gt;wrangle_data_opera.py&lt;/div&gt;" style="rounded=0;whiteSpace=wrap;html=1;fillColor=#fff2cc;strokeColor=#d6b656;" parent="1" vertex="1">
          <mxGeometry x="181" y="527" width="164" height="60" as="geometry" />
        </mxCell>
        <mxCell id="Ts85mT_bDLmugQmWIPTJ-23" value="&#xa;&lt;i class=&quot;item_icon running_notebook_icon icon-fixed-width&quot;&gt;&lt;/i&gt;&lt;a class=&quot;item_link&quot; href=&quot;http://localhost:8888/notebooks/01%20Filmprojekt/tmdbmatch.ipynb&quot; target=&quot;_blank&quot;&gt;&lt;span class=&quot;item_name&quot;&gt;tmdbmatch.ipynb&lt;/span&gt;&lt;/a&gt;&#xa;&#xa;" style="rounded=0;whiteSpace=wrap;html=1;" parent="1" vertex="1">
          <mxGeometry x="-173" y="296.5" width="120" height="54" as="geometry" />
        </mxCell>
        <mxCell id="Ts85mT_bDLmugQmWIPTJ-31" style="edgeStyle=orthogonalEdgeStyle;rounded=0;orthogonalLoop=1;jettySize=auto;html=1;entryX=0.5;entryY=0;entryDx=0;entryDy=0;entryPerimeter=0;" parent="1" source="Ts85mT_bDLmugQmWIPTJ-25" target="Ts85mT_bDLmugQmWIPTJ-30" edge="1">
          <mxGeometry relative="1" as="geometry" />
        </mxCell>
        <mxCell id="QEp2L6PEctv4l-9vnAkM-15" style="edgeStyle=orthogonalEdgeStyle;rounded=0;orthogonalLoop=1;jettySize=auto;html=1;entryX=0;entryY=0.5;entryDx=0;entryDy=0;" parent="1" source="Ts85mT_bDLmugQmWIPTJ-25" target="Ts85mT_bDLmugQmWIPTJ-23" edge="1">
          <mxGeometry relative="1" as="geometry" />
        </mxCell>
        <mxCell id="nMviqgkHkT_ptWmMSh8n-1" style="edgeStyle=orthogonalEdgeStyle;rounded=0;orthogonalLoop=1;jettySize=auto;html=1;entryX=1;entryY=0.5;entryDx=0;entryDy=0;" parent="1" source="Ts85mT_bDLmugQmWIPTJ-25" target="Ts85mT_bDLmugQmWIPTJ-50" edge="1">
          <mxGeometry relative="1" as="geometry" />
        </mxCell>
        <mxCell id="Ts85mT_bDLmugQmWIPTJ-25" value="&lt;div&gt;local file: &lt;br&gt;&lt;/div&gt;&lt;div&gt;input_tmdb.csv&lt;/div&gt;" style="shape=cylinder3;whiteSpace=wrap;html=1;boundedLbl=1;backgroundOutline=1;size=15;" parent="1" vertex="1">
          <mxGeometry x="-390" y="288" width="156" height="71" as="geometry" />
        </mxCell>
        <mxCell id="Ts85mT_bDLmugQmWIPTJ-34" style="edgeStyle=orthogonalEdgeStyle;rounded=0;orthogonalLoop=1;jettySize=auto;html=1;entryX=0.5;entryY=0;entryDx=0;entryDy=0;" parent="1" source="Ts85mT_bDLmugQmWIPTJ-30" target="Ts85mT_bDLmugQmWIPTJ-33" edge="1">
          <mxGeometry relative="1" as="geometry" />
        </mxCell>
        <mxCell id="Ts85mT_bDLmugQmWIPTJ-52" style="edgeStyle=orthogonalEdgeStyle;rounded=0;orthogonalLoop=1;jettySize=auto;html=1;entryX=0;entryY=0.5;entryDx=0;entryDy=0;" parent="1" source="Ts85mT_bDLmugQmWIPTJ-30" target="Ts85mT_bDLmugQmWIPTJ-17" edge="1">
          <mxGeometry relative="1" as="geometry" />
        </mxCell>
        <mxCell id="Ts85mT_bDLmugQmWIPTJ-30" value="&lt;div&gt;Github file: &lt;br&gt;&lt;/div&gt;&lt;div&gt;input_tmdb.csv&lt;/div&gt;" style="shape=cylinder3;whiteSpace=wrap;html=1;boundedLbl=1;backgroundOutline=1;size=15;" parent="1" vertex="1">
          <mxGeometry x="-390" y="429" width="156" height="71" as="geometry" />
        </mxCell>
        <mxCell id="Ts85mT_bDLmugQmWIPTJ-32" value="Git upload" style="rounded=0;whiteSpace=wrap;html=1;fillColor=#dae8fc;strokeColor=#6c8ebf;" parent="1" vertex="1">
          <mxGeometry x="-372" y="375" width="120" height="29" as="geometry" />
        </mxCell>
        <mxCell id="Ts85mT_bDLmugQmWIPTJ-33" value="movie app:&lt;br&gt;&lt;div&gt;wrangle_data_tmdb.py&lt;/div&gt;" style="rounded=0;whiteSpace=wrap;html=1;fillColor=#fff2cc;strokeColor=#d6b656;" parent="1" vertex="1">
          <mxGeometry x="-394" y="531" width="164" height="60" as="geometry" />
        </mxCell>
        <mxCell id="Ts85mT_bDLmugQmWIPTJ-38" style="edgeStyle=orthogonalEdgeStyle;rounded=0;orthogonalLoop=1;jettySize=auto;html=1;" parent="1" source="Ts85mT_bDLmugQmWIPTJ-35" target="Ts85mT_bDLmugQmWIPTJ-37" edge="1">
          <mxGeometry relative="1" as="geometry" />
        </mxCell>
        <mxCell id="Ts85mT_bDLmugQmWIPTJ-35" value="&lt;div&gt;local file: &lt;br&gt;&lt;/div&gt;&lt;div&gt;top_movies.csv&lt;/div&gt;" style="shape=cylinder3;whiteSpace=wrap;html=1;boundedLbl=1;backgroundOutline=1;size=15;" parent="1" vertex="1">
          <mxGeometry x="642" y="278" width="156" height="71" as="geometry" />
        </mxCell>
        <mxCell id="Ts85mT_bDLmugQmWIPTJ-41" style="edgeStyle=orthogonalEdgeStyle;rounded=0;orthogonalLoop=1;jettySize=auto;html=1;entryX=0.5;entryY=0;entryDx=0;entryDy=0;" parent="1" source="Ts85mT_bDLmugQmWIPTJ-37" target="Ts85mT_bDLmugQmWIPTJ-40" edge="1">
          <mxGeometry relative="1" as="geometry" />
        </mxCell>
        <mxCell id="Ts85mT_bDLmugQmWIPTJ-37" value="&lt;div&gt;github file:&lt;br&gt;&lt;/div&gt;&lt;div&gt;top_movies.csv&lt;/div&gt;" style="shape=cylinder3;whiteSpace=wrap;html=1;boundedLbl=1;backgroundOutline=1;size=15;" parent="1" vertex="1">
          <mxGeometry x="642" y="412" width="156" height="71" as="geometry" />
        </mxCell>
        <mxCell id="Ts85mT_bDLmugQmWIPTJ-39" value="Git upload" style="rounded=0;whiteSpace=wrap;html=1;fillColor=#dae8fc;strokeColor=#6c8ebf;" parent="1" vertex="1">
          <mxGeometry x="660" y="362" width="120" height="29" as="geometry" />
        </mxCell>
        <mxCell id="Ts85mT_bDLmugQmWIPTJ-40" value="movie app:&lt;br&gt;&lt;div&gt;recommender.html&lt;/div&gt;" style="rounded=0;whiteSpace=wrap;html=1;fillColor=#fff2cc;strokeColor=#d6b656;" parent="1" vertex="1">
          <mxGeometry x="638" y="514" width="164" height="60" as="geometry" />
        </mxCell>
        <mxCell id="Ts85mT_bDLmugQmWIPTJ-42" style="edgeStyle=orthogonalEdgeStyle;rounded=0;orthogonalLoop=1;jettySize=auto;html=1;" parent="1" source="Ts85mT_bDLmugQmWIPTJ-43" target="Ts85mT_bDLmugQmWIPTJ-45" edge="1">
          <mxGeometry relative="1" as="geometry" />
        </mxCell>
        <mxCell id="Ts85mT_bDLmugQmWIPTJ-43" value="&lt;div&gt;local file: &lt;br&gt;&lt;/div&gt;&lt;div&gt;recent_movies.csv&lt;/div&gt;" style="shape=cylinder3;whiteSpace=wrap;html=1;boundedLbl=1;backgroundOutline=1;size=15;" parent="1" vertex="1">
          <mxGeometry x="860" y="278" width="156" height="71" as="geometry" />
        </mxCell>
        <mxCell id="Ts85mT_bDLmugQmWIPTJ-44" style="edgeStyle=orthogonalEdgeStyle;rounded=0;orthogonalLoop=1;jettySize=auto;html=1;entryX=0.5;entryY=0;entryDx=0;entryDy=0;" parent="1" source="Ts85mT_bDLmugQmWIPTJ-45" target="Ts85mT_bDLmugQmWIPTJ-47" edge="1">
          <mxGeometry relative="1" as="geometry" />
        </mxCell>
        <mxCell id="Ts85mT_bDLmugQmWIPTJ-45" value="&lt;div&gt;github file:&lt;br&gt;&lt;/div&gt;&lt;div&gt;&lt;div&gt;recent_movies.csv&lt;/div&gt;&lt;/div&gt;" style="shape=cylinder3;whiteSpace=wrap;html=1;boundedLbl=1;backgroundOutline=1;size=15;" parent="1" vertex="1">
          <mxGeometry x="860" y="412" width="156" height="71" as="geometry" />
        </mxCell>
        <mxCell id="Ts85mT_bDLmugQmWIPTJ-46" value="Git upload" style="rounded=0;whiteSpace=wrap;html=1;fillColor=#dae8fc;strokeColor=#6c8ebf;" parent="1" vertex="1">
          <mxGeometry x="878" y="362" width="120" height="29" as="geometry" />
        </mxCell>
        <mxCell id="Ts85mT_bDLmugQmWIPTJ-47" value="movie app:&lt;br&gt;&lt;div&gt;index.html&lt;/div&gt;" style="rounded=0;whiteSpace=wrap;html=1;fillColor=#fff2cc;strokeColor=#d6b656;" parent="1" vertex="1">
          <mxGeometry x="856" y="514" width="164" height="60" as="geometry" />
        </mxCell>
        <mxCell id="Ts85mT_bDLmugQmWIPTJ-50" value="&#xa;&lt;a class=&quot;item_link&quot; href=&quot;http://localhost:8888/notebooks/01%20Filmprojekt/Movie%20Recommender.ipynb&quot; target=&quot;_blank&quot;&gt;&lt;span class=&quot;item_name&quot;&gt;Movie Recommender.ipynb&lt;/span&gt;&lt;/a&gt;&#xa;&#xa;" style="rounded=0;whiteSpace=wrap;html=1;" parent="1" vertex="1">
          <mxGeometry x="-644" y="299.5" width="181" height="54" as="geometry" />
        </mxCell>
        <mxCell id="Ts85mT_bDLmugQmWIPTJ-54" value="&lt;div align=&quot;left&quot;&gt;Run program: &lt;br&gt;&lt;/div&gt;&lt;div align=&quot;left&quot;&gt;&lt;ol&gt;&lt;li&gt;Run &quot;update_dashboard.py&quot;&lt;/li&gt;&lt;li&gt;Git push 03 Fillm Dashboard&lt;/li&gt;&lt;li&gt;Git push 77 tables&lt;/li&gt;&lt;li&gt;...&lt;/li&gt;&lt;li&gt;Success&lt;br&gt;&lt;/li&gt;&lt;/ol&gt;&lt;/div&gt;" style="rounded=0;whiteSpace=wrap;html=1;fillColor=#f8cecc;strokeColor=#b85450;" parent="1" vertex="1">
          <mxGeometry x="-96" y="-4" width="268" height="178" as="geometry" />
        </mxCell>
        <mxCell id="QEp2L6PEctv4l-9vnAkM-7" style="edgeStyle=orthogonalEdgeStyle;rounded=0;orthogonalLoop=1;jettySize=auto;html=1;entryX=0.5;entryY=0;entryDx=0;entryDy=0;entryPerimeter=0;" parent="1" source="QEp2L6PEctv4l-9vnAkM-1" target="QEp2L6PEctv4l-9vnAkM-2" edge="1">
          <mxGeometry relative="1" as="geometry" />
        </mxCell>
        <mxCell id="QEp2L6PEctv4l-9vnAkM-9" style="edgeStyle=orthogonalEdgeStyle;rounded=0;orthogonalLoop=1;jettySize=auto;html=1;entryX=0.5;entryY=0;entryDx=0;entryDy=0;entryPerimeter=0;" parent="1" source="QEp2L6PEctv4l-9vnAkM-1" target="Ts85mT_bDLmugQmWIPTJ-8" edge="1">
          <mxGeometry relative="1" as="geometry" />
        </mxCell>
        <mxCell id="QEp2L6PEctv4l-9vnAkM-10" style="edgeStyle=orthogonalEdgeStyle;rounded=0;orthogonalLoop=1;jettySize=auto;html=1;entryX=0.5;entryY=0;entryDx=0;entryDy=0;entryPerimeter=0;" parent="1" source="QEp2L6PEctv4l-9vnAkM-1" target="Ts85mT_bDLmugQmWIPTJ-7" edge="1">
          <mxGeometry relative="1" as="geometry" />
        </mxCell>
        <mxCell id="QEp2L6PEctv4l-9vnAkM-11" style="edgeStyle=orthogonalEdgeStyle;rounded=0;orthogonalLoop=1;jettySize=auto;html=1;entryX=0.5;entryY=0;entryDx=0;entryDy=0;entryPerimeter=0;" parent="1" source="QEp2L6PEctv4l-9vnAkM-1" target="Ts85mT_bDLmugQmWIPTJ-35" edge="1">
          <mxGeometry relative="1" as="geometry" />
        </mxCell>
        <mxCell id="QEp2L6PEctv4l-9vnAkM-12" style="edgeStyle=orthogonalEdgeStyle;rounded=0;orthogonalLoop=1;jettySize=auto;html=1;entryX=0.5;entryY=0;entryDx=0;entryDy=0;entryPerimeter=0;" parent="1" source="QEp2L6PEctv4l-9vnAkM-1" target="Ts85mT_bDLmugQmWIPTJ-43" edge="1">
          <mxGeometry relative="1" as="geometry" />
        </mxCell>
        <mxCell id="QEp2L6PEctv4l-9vnAkM-13" style="edgeStyle=orthogonalEdgeStyle;rounded=0;orthogonalLoop=1;jettySize=auto;html=1;" parent="1" source="QEp2L6PEctv4l-9vnAkM-1" target="Ts85mT_bDLmugQmWIPTJ-25" edge="1">
          <mxGeometry relative="1" as="geometry" />
        </mxCell>
        <mxCell id="QEp2L6PEctv4l-9vnAkM-1" value="update_dashboard.py" style="rounded=0;whiteSpace=wrap;html=1;" parent="1" vertex="1">
          <mxGeometry x="355" y="204" width="228" height="46" as="geometry" />
        </mxCell>
        <mxCell id="QEp2L6PEctv4l-9vnAkM-8" style="edgeStyle=orthogonalEdgeStyle;rounded=0;orthogonalLoop=1;jettySize=auto;html=1;entryX=0.5;entryY=0;entryDx=0;entryDy=0;" parent="1" source="QEp2L6PEctv4l-9vnAkM-2" target="Ts85mT_bDLmugQmWIPTJ-4" edge="1">
          <mxGeometry relative="1" as="geometry" />
        </mxCell>
        <mxCell id="QEp2L6PEctv4l-9vnAkM-2" value="&lt;div&gt;local file: &lt;br&gt;&lt;/div&gt;&lt;div&gt;wrangled-data.csv&lt;br&gt;&lt;/div&gt;" style="shape=cylinder3;whiteSpace=wrap;html=1;boundedLbl=1;backgroundOutline=1;size=15;rotation=0;" parent="1" vertex="1">
          <mxGeometry x="406" y="278" width="126" height="91" as="geometry" />
        </mxCell>
        <mxCell id="q-jhtlWtcuQimejiOmJV-3" style="edgeStyle=orthogonalEdgeStyle;rounded=0;orthogonalLoop=1;jettySize=auto;html=1;entryX=0.5;entryY=0;entryDx=0;entryDy=0;" edge="1" parent="1" source="q-jhtlWtcuQimejiOmJV-2" target="QEp2L6PEctv4l-9vnAkM-1">
          <mxGeometry relative="1" as="geometry">
            <Array as="points">
              <mxPoint x="651" y="173" />
              <mxPoint x="469" y="173" />
            </Array>
          </mxGeometry>
        </mxCell>
        <mxCell id="q-jhtlWtcuQimejiOmJV-2" value="wrangling_functions.py" style="rounded=0;whiteSpace=wrap;html=1;" vertex="1" parent="1">
          <mxGeometry x="580" y="100" width="147" height="39" as="geometry" />
        </mxCell>
      </root>
    </mxGraphModel>
  </diagram>
</mxfile>
